<svg width="33" height="24" viewBox="0 0 33 24" fill="none" xmlns="http://www.w3.org/2000/svg">
<g clip-path="url(#clip0_60_259)">
<mask id="mask0_60_259" style="mask-type:alpha" maskUnits="userSpaceOnUse" x="0" y="0" width="33" height="24">
<path d="M29.8571 0H3.14286C1.4071 0 0 1.43269 0 3.2V20.8C0 22.5673 1.4071 24 3.14286 24H29.8571C31.5929 24 33 22.5673 33 20.8V3.2C33 1.43269 31.5929 0 29.8571 0Z" fill="white"/>
</mask>
<g mask="url(#mask0_60_259)">
<path d="M29.8571 0H3.14286C1.4071 0 0 1.43269 0 3.2V20.8C0 22.5673 1.4071 24 3.14286 24H29.8571C31.5929 24 33 22.5673 33 20.8V3.2C33 1.43269 31.5929 0 29.8571 0Z" fill="white"/>
<path fill-rule="evenodd" clip-rule="evenodd" d="M0 0H14.1429V11.2H0V0Z" fill="#444379"/>
<path fill-rule="evenodd" clip-rule="evenodd" d="M1.57141 1.60001V3.20001H3.14284V1.60001H1.57141ZM4.71427 1.60001V3.20001H6.2857V1.60001H4.71427ZM7.85713 1.60001V3.20001H9.42855V1.60001H7.85713ZM11 1.60001V3.20001H12.5714V1.60001H11ZM9.42855 3.20001V4.80001H11V3.20001H9.42855ZM6.2857 3.20001V4.80001H7.85713V3.20001H6.2857ZM3.14284 3.20001V4.80001H4.71427V3.20001H3.14284ZM1.57141 4.80001V6.40001H3.14284V4.80001H1.57141ZM4.71427 4.80001V6.40001H6.2857V4.80001H4.71427ZM7.85713 4.80001V6.40001H9.42855V4.80001H7.85713ZM11 4.80001V6.40001H12.5714V4.80001H11ZM1.57141 8.00001V9.60001H3.14284V8.00001H1.57141ZM4.71427 8.00001V9.60001H6.2857V8.00001H4.71427ZM7.85713 8.00001V9.60001H9.42855V8.00001H7.85713ZM11 8.00001V9.60001H12.5714V8.00001H11ZM9.42855 6.40001V8.00001H11V6.40001H9.42855ZM6.2857 6.40001V8.00001H7.85713V6.40001H6.2857ZM3.14284 6.40001V8.00001H4.71427V6.40001H3.14284Z" fill="#A7B6E7"/>
<path fill-rule="evenodd" clip-rule="evenodd" d="M14.1429 0V1.6H33V0H14.1429ZM14.1429 3.2V4.8H33V3.2H14.1429ZM14.1429 6.4V8H33V6.4H14.1429ZM14.1429 9.6V11.2H33V9.6H14.1429ZM0 12.8V14.4H33V12.8H0ZM0 16V17.6H33V16H0ZM0 19.2V20.8H33V19.2H0ZM0 22.4V24H33V22.4H0Z" fill="#ED4C49"/>
<path d="M29.8572 0.799988H3.14291C1.8411 0.799988 0.785767 1.8745 0.785767 3.19999V20.8C0.785767 22.1255 1.8411 23.2 3.14291 23.2H29.8572C31.159 23.2 32.2143 22.1255 32.2143 20.8V3.19999C32.2143 1.8745 31.159 0.799988 29.8572 0.799988Z" stroke="black" stroke-opacity="0.1"/>
</g>
</g>
<defs>
<clipPath id="clip0_60_259">
<rect width="33" height="24" fill="white"/>
</clipPath>
</defs>
</svg>
