<svg width="27" height="25" viewBox="0 0 27 25" fill="none" xmlns="http://www.w3.org/2000/svg">
<path d="M13.5 15.7488C15.5711 15.7488 17.25 14.2158 17.25 12.3247C17.25 10.4336 15.5711 8.90063 13.5 8.90063C11.4289 8.90063 9.75 10.4336 9.75 12.3247C9.75 14.2158 11.4289 15.7488 13.5 15.7488Z" stroke="white" stroke-linecap="round" stroke-linejoin="round"/>
<path d="M21.9091 15.4375C21.7578 15.7505 21.7127 16.0976 21.7795 16.4342C21.8464 16.7708 22.0221 17.0814 22.2841 17.3259L22.3523 17.3882C22.5636 17.5809 22.7312 17.8098 22.8456 18.0617C22.96 18.3136 23.0188 18.5837 23.0188 18.8564C23.0188 19.1291 22.96 19.3991 22.8456 19.6511C22.7312 19.903 22.5636 20.1319 22.3523 20.3246C22.1412 20.5175 21.8905 20.6706 21.6146 20.775C21.3387 20.8795 21.043 20.9332 20.7443 20.9332C20.4456 20.9332 20.1499 20.8795 19.874 20.775C19.5981 20.6706 19.3474 20.5175 19.1364 20.3246L19.0682 20.2623C18.8004 20.0231 18.4602 19.8627 18.0916 19.8016C17.7229 19.7406 17.3427 19.7818 17 19.9199C16.6639 20.0515 16.3773 20.2698 16.1753 20.5482C15.9734 20.8266 15.8651 21.1528 15.8636 21.4867V21.6631C15.8636 22.2135 15.6242 22.7413 15.198 23.1305C14.7718 23.5196 14.1937 23.7383 13.5909 23.7383C12.9881 23.7383 12.4101 23.5196 11.9838 23.1305C11.5576 22.7413 11.3182 22.2135 11.3182 21.6631V21.5697C11.3094 21.2263 11.1876 20.8932 10.9688 20.6138C10.7499 20.3343 10.444 20.1215 10.0909 20.0029C9.74816 19.8648 9.36796 19.8236 8.99933 19.8846C8.6307 19.9457 8.29054 20.1061 8.02273 20.3453L7.95455 20.4076C7.74347 20.6005 7.49281 20.7536 7.21691 20.858C6.94101 20.9625 6.64526 21.0162 6.34659 21.0162C6.04792 21.0162 5.75218 20.9625 5.47627 20.858C5.20037 20.7536 4.94971 20.6005 4.73864 20.4076C4.52733 20.2149 4.35969 19.986 4.24532 19.7341C4.13095 19.4821 4.07208 19.2121 4.07208 18.9394C4.07208 18.6667 4.13095 18.3966 4.24532 18.1447C4.35969 17.8928 4.52733 17.6639 4.73864 17.4712L4.80682 17.4089C5.06879 17.1644 5.24453 16.8538 5.31137 16.5172C5.37821 16.1806 5.33309 15.8335 5.18182 15.5205C5.03777 15.2136 4.79859 14.9519 4.49371 14.7675C4.18884 14.5832 3.83158 14.4842 3.46591 14.4829H3.27273C2.66996 14.4829 2.09189 14.2643 1.66567 13.8751C1.23945 13.4859 1 12.9581 1 12.4077C1 11.8573 1.23945 11.3295 1.66567 10.9403C2.09189 10.5512 2.66996 10.3325 3.27273 10.3325H3.375C3.75113 10.3245 4.11591 10.2133 4.42193 10.0135C4.72795 9.81362 4.96104 9.53433 5.09091 9.21191C5.24218 8.89896 5.2873 8.5518 5.22046 8.21521C5.15362 7.87862 4.97788 7.56803 4.71591 7.32349L4.64773 7.26123C4.43642 7.0685 4.26878 6.83963 4.15441 6.58771C4.04004 6.33578 3.98117 6.06574 3.98117 5.79303C3.98117 5.52032 4.04004 5.25028 4.15441 4.99835C4.26878 4.74643 4.43642 4.51756 4.64773 4.32483C4.8588 4.13188 5.10946 3.97882 5.38536 3.87439C5.66127 3.76996 5.95701 3.7162 6.25568 3.7162C6.55435 3.7162 6.8501 3.76996 7.126 3.87439C7.40191 3.97882 7.65256 4.13188 7.86364 4.32483L7.93182 4.38708C8.19964 4.62629 8.53979 4.78675 8.90842 4.84778C9.27705 4.90881 9.65725 4.86761 10 4.72949H10.0909C10.427 4.59796 10.7137 4.37957 10.9156 4.10119C11.1175 3.82281 11.2258 3.4966 11.2273 3.16272V2.98633C11.2273 2.43595 11.4667 1.90812 11.8929 1.51894C12.3192 1.12977 12.8972 0.911133 13.5 0.911133C14.1028 0.911133 14.6808 1.12977 15.1071 1.51894C15.5333 1.90812 15.7727 2.43595 15.7727 2.98633V3.07971C15.7742 3.4136 15.8825 3.73981 16.0844 4.01818C16.2863 4.29656 16.573 4.51496 16.9091 4.64648C17.2518 4.7846 17.632 4.82581 18.0007 4.76478C18.3693 4.70374 18.7095 4.54328 18.9773 4.30408L19.0455 4.24182C19.2565 4.04888 19.5072 3.89581 19.7831 3.79138C20.059 3.68695 20.3547 3.63319 20.6534 3.63319C20.9521 3.63319 21.2478 3.68695 21.5237 3.79138C21.7996 3.89581 22.0503 4.04888 22.2614 4.24182C22.4727 4.43455 22.6403 4.66342 22.7547 4.91535C22.8691 5.16727 22.9279 5.43731 22.9279 5.71002C22.9279 5.98273 22.8691 6.25277 22.7547 6.5047C22.6403 6.75662 22.4727 6.98549 22.2614 7.17822L22.1932 7.24048C21.9312 7.48502 21.7555 7.79561 21.6886 8.1322C21.6218 8.46879 21.6669 8.81595 21.8182 9.12891V9.21191C21.9622 9.5188 22.2014 9.78054 22.5063 9.96489C22.8112 10.1492 23.1684 10.2482 23.5341 10.2495H23.7273C24.33 10.2495 24.9081 10.4681 25.3343 10.8573C25.7606 11.2465 26 11.7743 26 12.3247C26 12.8751 25.7606 13.4029 25.3343 13.7921C24.9081 14.1813 24.33 14.3999 23.7273 14.3999H23.625C23.2593 14.4012 22.9021 14.5002 22.5972 14.6845C22.2923 14.8689 22.0531 15.1306 21.9091 15.4375Z" stroke="white" stroke-linecap="round" stroke-linejoin="round"/>
</svg>
