<svg width="22" height="20" viewBox="0 0 22 20" fill="none" xmlns="http://www.w3.org/2000/svg">
<path d="M8 18.7842V11.5769C8 11.0314 8 10.7587 8.109 10.5503C8.20487 10.3671 8.35785 10.2181 8.54601 10.1247C8.75992 10.0186 9.03995 10.0186 9.6 10.0186H12.4C12.9601 10.0186 13.2401 10.0186 13.454 10.1247C13.6422 10.2181 13.7951 10.3671 13.891 10.5503C14 10.7587 14 11.0314 14 11.5769V18.7842M1 7.58366L10.04 0.980221C10.3843 0.728751 10.5564 0.603016 10.7454 0.554548C10.9123 0.511765 11.0877 0.511765 11.2546 0.554548C11.4436 0.603016 11.6157 0.728751 11.96 0.980221L21 7.58366M3 6.12272V15.6675C3 16.7584 3 17.3039 3.21799 17.7206C3.40974 18.0871 3.7157 18.3851 4.09202 18.5719C4.51985 18.7842 5.0799 18.7842 6.2 18.7842H15.8C16.9201 18.7842 17.4802 18.7842 17.908 18.5719C18.2843 18.3851 18.5903 18.0871 18.782 17.7206C19 17.3039 19 16.7584 19 15.6675V6.12272L12.92 1.68147C12.2315 1.17853 11.8872 0.927061 11.5091 0.830125C11.1754 0.744559 10.8246 0.744559 10.4909 0.830125C10.1128 0.927061 9.76852 1.17853 9.08 1.68147L3 6.12272Z" stroke="white" stroke-linecap="round" stroke-linejoin="round"/>
</svg>
