<svg width="16" height="16" viewBox="0 0 16 16" fill="none" xmlns="http://www.w3.org/2000/svg">
<path d="M6.91282 9.0409L14.5563 1.72269M7.00569 9.26955L8.91882 13.9797C9.08736 14.3946 9.17163 14.6021 9.29305 14.6627C9.39831 14.7152 9.5237 14.7153 9.62903 14.6629C9.75052 14.6024 9.83505 14.3951 10.0041 13.9803L14.8015 2.21001C14.9541 1.83561 15.0304 1.64841 14.9887 1.52879C14.9524 1.42491 14.8673 1.34338 14.7588 1.30868C14.6339 1.26872 14.4383 1.34177 14.0473 1.48788L1.75388 6.08117C1.3207 6.24302 1.10411 6.32395 1.04099 6.44027C0.986268 6.54112 0.986342 6.66117 1.04118 6.76195C1.10445 6.87821 1.32114 6.95889 1.75452 7.12026L6.674 8.95198C6.76197 8.98473 6.80596 9.00111 6.843 9.02641C6.87583 9.04883 6.90454 9.07632 6.92795 9.10775C6.95437 9.14321 6.97148 9.18532 7.00569 9.26955Z" stroke="black" stroke-width="1.3" stroke-linecap="round" stroke-linejoin="round"/>
</svg>
