<svg width="27" height="27" viewBox="0 0 27 27" fill="none" xmlns="http://www.w3.org/2000/svg">
<path d="M20.73 6.89998H21.99M6.24001 0.599976H21.36C24.1435 0.599976 26.4 2.85646 26.4 5.63998V20.76C26.4 23.5435 24.1435 25.8 21.36 25.8H6.24001C3.4565 25.8 1.20001 23.5435 1.20001 20.76V5.63998C1.20001 2.85646 3.4565 0.599976 6.24001 0.599976ZM13.8 18.24C11.0165 18.24 8.76001 15.9835 8.76001 13.2C8.76001 10.4165 11.0165 8.15998 13.8 8.15998C16.5835 8.15998 18.84 10.4165 18.84 13.2C18.84 15.9835 16.5835 18.24 13.8 18.24Z" stroke="white" stroke-width="0.8"/>
</svg>
