<svg width="23" height="19" viewBox="0 0 23 19" fill="none" xmlns="http://www.w3.org/2000/svg">
<path d="M7.85421 10.0208C9.00478 10.0208 9.93754 9.08806 9.93754 7.93749C9.93754 6.78692 9.00478 5.85416 7.85421 5.85416C6.70363 5.85416 5.77087 6.78692 5.77087 7.93749C5.77087 9.08806 6.70363 10.0208 7.85421 10.0208ZM7.85421 10.0208C9.58009 10.0208 10.9791 11.4199 10.9791 13.1458M7.85421 10.0208C6.12832 10.0208 4.72913 11.4199 4.72913 13.1458M13.5834 7.41666H17.75M14.625 11.5833H17.75M2.12504 1.16666H20.875C21.4503 1.16666 21.9167 1.63303 21.9167 2.20832V16.7917C21.9167 17.367 21.4503 17.8333 20.875 17.8333H2.12504C1.54974 17.8333 1.08337 17.367 1.08337 16.7917V2.20832C1.08337 1.63303 1.54974 1.16666 2.12504 1.16666Z" stroke="white" stroke-linecap="round" stroke-linejoin="round"/>
</svg>
