<svg width="22" height="22" viewBox="0 0 22 22" fill="none" xmlns="http://www.w3.org/2000/svg">
<path d="M5 5.18381L9.5 9.89061M5 5.18381H2L1 2.04595L2 1L5 2.04595V5.18381ZM18.259 1.77506L15.6314 4.52343C15.2354 4.93765 15.0373 5.14475 14.9632 5.38357C14.8979 5.59365 14.8979 5.81994 14.9632 6.03001C15.0373 6.26883 15.2354 6.47594 15.6314 6.89015L15.8686 7.13831C16.2646 7.55253 16.4627 7.75964 16.691 7.83723C16.8918 7.90549 17.1082 7.90549 17.309 7.83723C17.5373 7.75964 17.7354 7.55253 18.1314 7.13831L20.5893 4.56745C20.854 5.24122 21 5.97915 21 6.75274C21 9.9299 18.5376 12.5055 15.5 12.5055C15.1338 12.5055 14.7759 12.4681 14.4298 12.3966C13.9436 12.2964 13.7005 12.2462 13.5532 12.2616C13.3965 12.2779 13.3193 12.3025 13.1805 12.3802C13.0499 12.4532 12.919 12.5902 12.657 12.8642L5.5 20.3501C4.67157 21.2166 3.32843 21.2166 2.5 20.3501C1.67157 19.4836 1.67157 18.0788 2.5 17.2123L9.65703 9.72636C9.91897 9.45238 10.0499 9.31539 10.1198 9.17882C10.1941 9.03363 10.2176 8.95288 10.2332 8.78902C10.2479 8.63489 10.1999 8.38065 10.1041 7.87217C10.0358 7.51008 10 7.13578 10 6.75274C10 3.57559 12.4624 1 15.5 1C16.5055 1 17.448 1.28222 18.259 1.77506ZM11.0001 14.5973L16.5 20.35C17.3284 21.2165 18.6716 21.2165 19.5 20.35C20.3284 19.4835 20.3284 18.0787 19.5 17.2122L14.9753 12.4797C14.655 12.4479 14.3427 12.3875 14.0408 12.3008C13.6517 12.1891 13.2249 12.2702 12.9397 12.5686L11.0001 14.5973Z" stroke="white" stroke-linecap="round" stroke-linejoin="round"/>
</svg>
