<svg width="210" height="286" viewBox="0 0 210 286" fill="none" xmlns="http://www.w3.org/2000/svg">
<path d="M140.173 75.0439C140.173 70.478 141.633 66.0318 144.341 62.3551C156.591 45.7183 182.972 54.3833 182.972 75.0439V237.891C182.972 249.709 173.391 259.29 161.572 259.29C149.754 259.29 140.173 249.709 140.173 237.891V75.0439Z" fill="#C9C9C9"/>
<path d="M151.574 52.6118L27.4884 222.233C16.238 237.612 27.2392 259.253 46.2939 259.226C54.1617 259.215 61.4906 255.227 65.7734 248.627L103.024 191.22L180.172 72.3283C182 69.5123 182.972 66.2273 182.972 62.8705C182.972 46.0679 161.495 39.0506 151.574 52.6118Z" fill="white"/>
</svg>
