<svg width="27" height="27" viewBox="0 0 27 27" fill="none" xmlns="http://www.w3.org/2000/svg">
<path d="M9.7863 21.2523C9.9998 21.1956 10.1269 20.9765 10.0702 20.763C10.0135 20.5495 9.79442 20.4224 9.58091 20.4791L9.7863 21.2523ZM1.28648 16.5278L0.895944 16.4413L0.722998 17.2224L1.11354 17.3088L1.28648 16.5278ZM19.3134 25.8V26.2H20.1134V25.8H19.3134ZM18.8776 15.9314L18.8415 15.5331C18.6806 15.5477 18.5442 15.6577 18.4959 15.8119C18.4476 15.9661 18.4969 16.1343 18.6208 16.2381L18.8776 15.9314ZM26.4 8.56881L26.8 8.56881L26.8 8.56728L26.4 8.56881ZM24.4503 4.60907L24.0869 4.44175C24.0117 4.60502 24.0547 4.7984 24.1919 4.91448L24.4503 4.60907ZM24.3332 0.628346L24.6867 0.441156C24.6331 0.339791 24.5384 0.266345 24.4269 0.239476L24.3332 0.628346ZM19.2489 2.19127L19.1631 2.58195C19.2572 2.60264 19.3556 2.58865 19.4403 2.54254L19.2489 2.19127ZM10.1481 2.19127L9.9568 2.54257C10.0414 2.58865 10.1399 2.60264 10.234 2.58195L10.1481 2.19127ZM5.06379 0.628346L4.97 0.239496C4.85853 0.266383 4.76395 0.339818 4.71029 0.441156L5.06379 0.628346ZM4.94677 4.60907L5.20505 4.9145C5.34232 4.79842 5.38529 4.60503 5.3101 4.44175L4.94677 4.60907ZM2.99701 8.60089L3.39701 8.60089L3.39701 8.59967L2.99701 8.60089ZM10.5194 15.9314L10.7768 16.2376C10.8999 16.1342 10.949 15.9672 10.9017 15.8135C10.8543 15.6599 10.7195 15.5496 10.5596 15.5335L10.5194 15.9314ZM9.6836 18.892H10.0836C10.0836 18.8804 10.0831 18.8688 10.0821 18.8573L9.6836 18.892ZM9.2836 25.8V26.2H10.0836V25.8H9.2836ZM9.58091 20.4791C8.05992 20.8832 6.97834 20.8683 6.17308 20.6442C5.37297 20.4215 4.80487 19.9809 4.32694 19.4555C4.08577 19.1904 3.86934 18.9056 3.65572 18.614C3.44617 18.3279 3.23241 18.0252 3.01338 17.7528C2.57407 17.2064 2.04963 16.6967 1.28648 16.5278L1.11354 17.3088C1.60392 17.4174 1.98306 17.7481 2.38991 18.2541C2.59396 18.5079 2.78893 18.7844 3.01033 19.0867C3.22765 19.3834 3.46438 19.6961 3.73514 19.9938C4.2811 20.594 4.97201 21.1403 5.95857 21.4149C6.93999 21.688 8.17275 21.6809 9.7863 21.2523L9.58091 20.4791ZM20.1134 18.7686C20.1134 17.5801 20.1777 16.4988 19.1345 15.6248L18.6208 16.2381C19.3298 16.8321 19.3134 17.49 19.3134 18.7686H20.1134ZM18.9137 16.3298C20.9684 16.1436 22.9496 15.7376 24.4164 14.5883C25.9098 13.4182 26.8 11.5368 26.8 8.56881H26C26 11.3665 25.1703 12.9813 23.923 13.9586C22.6492 14.9567 20.8692 15.3493 18.8415 15.5331L18.9137 16.3298ZM26.8 8.56728C26.7938 6.95288 26.0316 5.42266 24.7086 4.30365L24.1919 4.91448C25.3556 5.89867 25.9948 7.21464 26 8.57034L26.8 8.56728ZM24.8136 4.77638C25.1321 4.0847 25.2861 3.3437 25.2641 2.59707L24.4645 2.62058C24.4827 3.2405 24.3552 3.85919 24.0869 4.44175L24.8136 4.77638ZM25.2641 2.59707C25.2422 1.85049 25.0449 1.11754 24.6867 0.441156L23.9797 0.815536C24.2825 1.3873 24.4462 2.00062 24.4645 2.62058L25.2641 2.59707ZM24.3332 0.628346C24.4269 0.239476 24.4266 0.239396 24.4263 0.239315C24.4261 0.239287 24.4258 0.239205 24.4256 0.239147C24.4251 0.239033 24.4246 0.238914 24.424 0.23879C24.423 0.238543 24.4218 0.238277 24.4206 0.237993C24.4181 0.237427 24.4152 0.236792 24.412 0.236098C24.4054 0.234712 24.3974 0.233092 24.3878 0.23132C24.3686 0.227778 24.3433 0.223633 24.3117 0.219541C24.2486 0.211352 24.1606 0.203389 24.0468 0.200827C23.8192 0.195702 23.4895 0.212224 23.0508 0.291275C22.1737 0.449329 20.8621 0.857021 19.0576 1.84001L19.4403 2.54254C21.1842 1.59253 22.4148 1.21876 23.1927 1.0786C23.5815 1.00854 23.8576 0.996768 24.0288 1.00062C24.1145 1.00255 24.1742 1.0084 24.2089 1.0129C24.2262 1.01515 24.2374 1.01707 24.2424 1.018C24.245 1.01847 24.246 1.01869 24.2455 1.01859C24.2452 1.01854 24.2446 1.0184 24.2436 1.01818C24.2431 1.01806 24.2425 1.01793 24.2419 1.01777C24.2415 1.01769 24.2412 1.0176 24.2408 1.01751C24.2406 1.01747 24.2403 1.01739 24.2402 1.01737C24.2399 1.01729 24.2395 1.01722 24.3332 0.628346ZM19.3348 1.8006C16.2945 1.13225 13.1026 1.13225 10.0622 1.8006L10.234 2.58195C13.1612 1.93847 16.2359 1.93847 19.1631 2.58195L19.3348 1.8006ZM10.3394 1.83998C8.53417 0.857016 7.22263 0.449332 6.34566 0.291278C5.90703 0.212227 5.5775 0.195701 5.34999 0.200827C5.23628 0.203389 5.14831 0.211354 5.08518 0.219546C5.05362 0.22364 5.02832 0.227786 5.00914 0.231332C4.99956 0.233104 4.99151 0.234725 4.98499 0.236114C4.98173 0.236808 4.97885 0.237444 4.97636 0.238011C4.97511 0.238295 4.97395 0.238561 4.97289 0.238809C4.97236 0.238933 4.97186 0.239052 4.97138 0.239167C4.97113 0.239224 4.97079 0.239307 4.97067 0.239335C4.97033 0.239416 4.97 0.239496 5.06379 0.628346C5.15757 1.0172 5.15725 1.01727 5.15694 1.01735C5.15684 1.01737 5.15653 1.01745 5.15634 1.01749C5.15595 1.01758 5.15558 1.01767 5.15524 1.01775C5.15456 1.01791 5.15396 1.01805 5.15347 1.01816C5.15247 1.01839 5.15185 1.01852 5.1516 1.01857C5.1511 1.01868 5.1521 1.01846 5.15462 1.01799C5.15966 1.01706 5.17079 1.01514 5.18812 1.01289C5.22277 1.0084 5.2824 1.00255 5.36801 1.00062C5.53912 0.996769 5.81505 1.00854 6.20376 1.07859C6.98145 1.21875 8.21206 1.59253 9.9568 2.54257L10.3394 1.83998ZM4.71029 0.441156C4.35212 1.11754 4.15485 1.85049 4.13291 2.59707L4.93256 2.62058C4.95078 2.00062 5.11451 1.3873 5.41728 0.815536L4.71029 0.441156ZM4.13291 2.59707C4.11096 3.3437 4.26492 4.0847 4.58344 4.77638L5.3101 4.44175C5.04182 3.85919 4.91434 3.2405 4.93256 2.62058L4.13291 2.59707ZM4.68849 4.30363C4.02866 4.8616 3.50146 5.52759 3.14097 6.26562L3.85981 6.61673C4.16846 5.98481 4.62428 5.40562 5.20505 4.9145L4.68849 4.30363ZM3.14097 6.26562C2.78032 7.00399 2.59457 7.79822 2.59701 8.6021L3.39701 8.59967C3.39495 7.92192 3.55131 7.24832 3.85981 6.61673L3.14097 6.26562ZM2.59701 8.60089C2.59701 11.5493 3.48818 13.4123 4.98177 14.5738C6.44735 15.7136 8.42734 16.1223 10.4793 16.3294L10.5596 15.5335C8.52914 15.3285 6.74793 14.9339 5.47289 13.9423C4.22586 12.9725 3.39701 11.3762 3.39701 8.60089H2.59701ZM10.2621 15.6252C9.2292 16.4934 9.19713 17.9164 9.28511 18.9267L10.0821 18.8573C9.99455 17.852 10.0807 16.8227 10.7768 16.2376L10.2621 15.6252ZM9.2836 18.892V25.8H10.0836V18.892H9.2836ZM20.1134 25.8V18.7686H19.3134V25.8H20.1134Z" fill="white"/>
</svg>
