<svg width="16" height="16" viewBox="0 0 16 16" fill="none" xmlns="http://www.w3.org/2000/svg">
<path d="M5.84147 12.742C6.10836 12.6711 6.26724 12.3973 6.19635 12.1304C6.12545 11.8635 5.85162 11.7046 5.58474 11.7755L5.84147 12.742ZM1.10809 9.57756L0.619914 9.46947L0.403732 10.4458L0.891909 10.5539L1.10809 9.57756ZM10.7852 15V15.5H11.7852V15H10.7852ZM10.8209 9.51748L10.7758 9.01952C10.5746 9.03776 10.4041 9.17528 10.3437 9.36807C10.2834 9.56086 10.3449 9.77103 10.4998 9.90076L10.8209 9.51748ZM15 5.42713H15.5L15.5 5.42522L15 5.42713ZM13.9168 3.22727L13.4626 3.01813C13.3687 3.22222 13.4224 3.46394 13.5939 3.60904L13.9168 3.22727ZM13.8518 1.01576L14.2937 0.781774C14.2266 0.655067 14.1083 0.56326 13.9689 0.529674L13.8518 1.01576ZM11.0272 1.88406L10.9198 2.3724C11.0375 2.39826 11.1606 2.38077 11.2664 2.32313L11.0272 1.88406ZM5.97115 1.88406L5.73205 2.32318C5.83783 2.38078 5.96086 2.39826 6.0785 2.3724L5.97115 1.88406ZM3.14654 1.01576L3.02931 0.529699C2.88997 0.563307 2.77175 0.655101 2.70467 0.781774L3.14654 1.01576ZM3.08153 3.22727L3.40439 3.60906C3.57597 3.46397 3.62968 3.22223 3.53569 3.01813L3.08153 3.22727ZM1.99833 5.44495H2.49833L2.49833 5.44343L1.99833 5.44495ZM6.17745 9.51748L6.49916 9.90024C6.65299 9.77095 6.71447 9.56213 6.65524 9.37011C6.59601 9.17809 6.42759 9.04019 6.22766 9.02001L6.17745 9.51748ZM5.71311 11.1622H6.21311C6.21311 11.1478 6.21248 11.1333 6.21122 11.1189L5.71311 11.1622ZM5.21311 15V15.5H6.21311V15H5.21311ZM5.58474 11.7755C4.77188 11.9914 4.2235 11.9756 3.8373 11.8681C3.45753 11.7624 3.18457 11.5543 2.94267 11.2884C2.81895 11.1524 2.70577 11.0039 2.58838 10.8436C2.47607 10.6903 2.3508 10.5131 2.2239 10.3553C1.96858 10.0377 1.62677 9.6924 1.10809 9.57756L0.891909 10.5539C1.06964 10.5933 1.22981 10.7148 1.44458 10.9819C1.55273 11.1164 1.65453 11.261 1.78163 11.4345C1.90365 11.6011 2.04223 11.7846 2.20292 11.9613C2.52985 12.3207 2.95633 12.6609 3.56916 12.8314C4.17556 13.0002 4.91292 12.9886 5.84147 12.742L5.58474 11.7755ZM11.7852 11.0937C11.7852 10.4647 11.8376 9.71694 11.142 9.1342L10.4998 9.90076C10.7777 10.1335 10.7852 10.3521 10.7852 11.0937H11.7852ZM10.866 10.0154C12.0168 9.91112 13.1875 9.68094 14.0693 8.98997C14.9844 8.27296 15.5 7.13517 15.5 5.42713H14.5C14.5 6.92226 14.06 7.72684 13.4526 8.20282C12.8118 8.70484 11.8929 8.91825 10.7758 9.01952L10.866 10.0154ZM15.5 5.42522C15.4962 4.4385 15.0301 3.51399 14.2397 2.84551L13.5939 3.60904C14.185 4.109 14.4975 4.7657 14.5 5.42904L15.5 5.42522ZM14.371 3.43641C14.5654 3.01426 14.6601 2.56012 14.6466 2.10134L13.647 2.13072C13.6559 2.43112 13.5942 2.73237 13.4626 3.01813L14.371 3.43641ZM14.6466 2.10134C14.6331 1.6426 14.5119 1.19387 14.2937 0.781774L13.4099 1.24975C13.5589 1.53107 13.6382 1.83027 13.647 2.13072L14.6466 2.10134ZM13.8518 1.01576C13.9689 0.529674 13.9685 0.529575 13.9681 0.529476C13.9679 0.529442 13.9675 0.529342 13.9672 0.529275C13.9667 0.529139 13.9661 0.529002 13.9655 0.528863C13.9643 0.528584 13.9631 0.528296 13.9618 0.528002C13.9592 0.527412 13.9563 0.526792 13.9533 0.526148C13.9473 0.52486 13.9404 0.523474 13.9326 0.522038C13.917 0.519164 13.898 0.516089 13.8756 0.513175C13.8306 0.507345 13.7719 0.502186 13.6989 0.500544C13.5529 0.497255 13.3511 0.508084 13.0901 0.555125C12.5683 0.649145 11.8115 0.887418 10.788 1.44498L11.2664 2.32313C12.2142 1.8068 12.8698 1.61093 13.2674 1.53928C13.4661 1.50348 13.6008 1.49859 13.6764 1.50029C13.7143 1.50114 13.7376 1.50366 13.747 1.50487C13.7517 1.50549 13.753 1.50578 13.7509 1.50539C13.7498 1.5052 13.748 1.50484 13.7452 1.50426C13.7439 1.50397 13.7423 1.50363 13.7406 1.50323C13.7397 1.50303 13.7388 1.50282 13.7378 1.50259C13.7373 1.50247 13.7368 1.50235 13.7363 1.50223C13.736 1.50217 13.7356 1.50207 13.7355 1.50204C13.7351 1.50195 13.7347 1.50185 13.8518 1.01576ZM11.1345 1.39572C9.40616 1.01577 7.59217 1.01577 5.8638 1.39572L6.0785 2.3724C7.66543 2.02355 9.3329 2.02355 10.9198 2.3724L11.1345 1.39572ZM6.21026 1.44493C5.18637 0.887412 4.42964 0.649148 3.90796 0.555128C3.64695 0.508087 3.44526 0.497254 3.29928 0.500544C3.22636 0.502187 3.16764 0.507348 3.12268 0.513182C3.10021 0.516097 3.08123 0.519174 3.06567 0.522052C3.05789 0.52349 3.05098 0.524877 3.04492 0.526167C3.04189 0.526812 3.03907 0.527433 3.03647 0.528024C3.03517 0.528319 3.03392 0.528607 3.03273 0.528886C3.03213 0.529026 3.03155 0.529164 3.03098 0.529299C3.03069 0.529367 3.03028 0.529467 3.03013 0.529501C3.02972 0.5296 3.02931 0.529699 3.14654 1.01576C3.26377 1.50182 3.26337 1.50192 3.26297 1.50202C3.26284 1.50205 3.26244 1.50214 3.26218 1.50221C3.26166 1.50233 3.26116 1.50245 3.26066 1.50256C3.25968 1.50279 3.25874 1.50301 3.25786 1.50321C3.25609 1.50361 3.25453 1.50395 3.25317 1.50424C3.25046 1.50482 3.24857 1.50518 3.24752 1.50538C3.24541 1.50577 3.24667 1.50548 3.25136 1.50487C3.26072 1.50365 3.284 1.50114 3.32181 1.50029C3.39729 1.49859 3.53197 1.50348 3.73059 1.53927C4.12817 1.61093 4.78374 1.80681 5.73205 2.32318L6.21026 1.44493ZM2.70467 0.781774C2.48645 1.19387 2.36521 1.6426 2.35173 2.10134L3.3513 2.13072C3.36013 1.83027 3.43944 1.53107 3.58841 1.24975L2.70467 0.781774ZM2.35173 2.10134C2.33824 2.56012 2.43297 3.01426 2.62737 3.43641L3.53569 3.01813C3.4041 2.73237 3.34247 2.43112 3.3513 2.13072L2.35173 2.10134ZM2.75868 2.84548C2.36466 3.17867 2.04698 3.5788 1.82872 4.02567L2.72726 4.46455C2.88074 4.15033 3.10918 3.8587 3.40439 3.60906L2.75868 2.84548ZM1.82872 4.02567C1.61025 4.47295 1.49684 4.95607 1.49833 5.44647L2.49833 5.44343C2.49732 5.1107 2.57398 4.77836 2.72726 4.46455L1.82872 4.02567ZM1.49833 5.44495C1.49833 7.14306 2.01507 8.27064 2.93045 8.98252C3.81082 9.66717 4.97983 9.89915 6.12724 10.015L6.22766 9.02001C5.10709 8.90692 4.18655 8.69256 3.54435 8.19313C2.93716 7.72094 2.49833 6.92671 2.49833 5.44495H1.49833ZM5.85574 9.13472C5.16499 9.71531 5.16596 10.6426 5.21499 11.2056L6.21122 11.1189C6.16274 10.5621 6.22941 10.127 6.49916 9.90024L5.85574 9.13472ZM5.21311 11.1622V15H6.21311V11.1622H5.21311ZM11.7852 15V11.0937H10.7852V15H11.7852Z" fill="white"/>
</svg>
