<svg width="27" height="27" viewBox="0 0 27 27" fill="none" xmlns="http://www.w3.org/2000/svg">
<path d="M3.71965 20.7607L4.07742 20.9396L4.18808 20.7183L4.03946 20.5204L3.71965 20.7607ZM6.23929 23.2803L6.47954 22.9605L6.28171 22.8119L6.0604 22.9226L6.23929 23.2803ZM1.20001 25.8L0.842241 25.6211C0.765244 25.7751 0.795425 25.9611 0.91717 26.0828C1.03891 26.2046 1.2249 26.2347 1.3789 26.1577L1.20001 25.8ZM8.76001 8.15999L8.52001 7.83999C8.41929 7.91553 8.36001 8.03409 8.36001 8.15999H8.76001ZM18.84 18.24V18.64C18.958 18.64 19.07 18.5879 19.146 18.4976L18.84 18.24ZM9.54304 7.57271L9.30304 7.25271L9.30304 7.25271L9.54304 7.57271ZM11.5493 8.42443L11.1524 8.47404L11.1524 8.47404L11.5493 8.42443ZM11.8336 10.6985L12.2305 10.6489L12.2305 10.6489L11.8336 10.6985ZM11.4743 11.7457L11.1914 11.4629L11.1914 11.4629L11.4743 11.7457ZM19.3986 17.5767L19.0926 17.319L19.0926 17.319L19.3986 17.5767ZM18.6172 15.5184L18.6751 15.1226L18.6751 15.1226L18.6172 15.5184ZM16.316 15.1816L16.3739 14.7858L16.316 15.1816ZM15.2426 15.5374L15.5255 15.8202L15.5255 15.8202L15.2426 15.5374ZM0.800028 13.2C0.800028 16.1264 1.76748 18.8281 3.39984 21.001L4.03946 20.5204C2.50761 18.4813 1.60003 15.9472 1.60003 13.2H0.800028ZM13.8 0.199976C6.62032 0.199976 0.800028 6.02027 0.800028 13.2H1.60003C1.60003 6.4621 7.06215 0.999976 13.8 0.999976V0.199976ZM26.8 13.2C26.8 6.02027 20.9797 0.199976 13.8 0.199976V0.999976C20.5379 0.999976 26 6.4621 26 13.2H26.8ZM13.8 26.2C20.9797 26.2 26.8 20.3797 26.8 13.2H26C26 19.9378 20.5379 25.4 13.8 25.4V26.2ZM5.99903 23.6001C8.17191 25.2325 10.8736 26.2 13.8 26.2V25.4C11.0528 25.4 8.51864 24.4924 6.47954 22.9605L5.99903 23.6001ZM1.3789 26.1577L6.41817 23.6381L6.0604 22.9226L1.02113 25.4422L1.3789 26.1577ZM3.36188 20.5818L0.842241 25.6211L1.55778 25.9789L4.07742 20.9396L3.36188 20.5818ZM8.36001 8.15999V9.41999H9.16001V8.15999H8.36001ZM17.58 18.64H18.84V17.84H17.58V18.64ZM8.36001 9.41999C8.36001 14.5121 12.4879 18.64 17.58 18.64V17.84C12.9298 17.84 9.16001 14.0702 9.16001 9.41999H8.36001ZM9.00001 8.47999L9.78304 7.89271L9.30304 7.25271L8.52001 7.83999L9.00001 8.47999ZM11.1524 8.47404L11.4367 10.7481L12.2305 10.6489L11.9462 8.37481L11.1524 8.47404ZM11.1914 11.4629L9.73716 12.9171L10.3029 13.4828L11.7571 12.0286L11.1914 11.4629ZM11.4367 10.7481C11.4696 11.0115 11.3791 11.2752 11.1914 11.4629L11.7571 12.0286C12.1193 11.6664 12.294 11.1572 12.2305 10.6489L11.4367 10.7481ZM9.78304 7.89271C10.3113 7.49652 11.0705 7.81881 11.1524 8.47404L11.9462 8.37481C11.7881 7.11007 10.3227 6.48796 9.30304 7.25271L9.78304 7.89271ZM19.146 18.4976L19.7045 17.8343L19.0926 17.319L18.534 17.9823L19.146 18.4976ZM18.6751 15.1226L16.3739 14.7858L16.2581 15.5774L18.5593 15.9141L18.6751 15.1226ZM14.9598 15.2545L13.5172 16.6971L14.0828 17.2628L15.5255 15.8202L14.9598 15.2545ZM16.3739 14.7858C15.855 14.7099 15.3307 14.8837 14.9598 15.2545L15.5255 15.8202C15.7176 15.6281 15.9892 15.538 16.2581 15.5774L16.3739 14.7858ZM19.7045 17.8343C20.5424 16.8393 19.9623 15.3109 18.6751 15.1226L18.5593 15.9141C19.2261 16.0117 19.5267 16.8035 19.0926 17.319L19.7045 17.8343Z" fill="white"/>
</svg>
