<svg width="27" height="23" viewBox="0 0 27 23" fill="none" xmlns="http://www.w3.org/2000/svg">
<path d="M21 22.6002L20.739 22.9033C20.8149 22.9687 20.9125 23.0032 21.0127 23L21 22.6002ZM18.6878 19.8281C18.5509 19.6547 18.2994 19.6251 18.126 19.762C17.9526 19.8989 17.9231 20.1505 18.0599 20.3238L18.6878 19.8281ZM19.7979 18.7813L19.6587 18.4063C19.6534 18.4083 19.6482 18.4104 19.6429 18.4126L19.7979 18.7813ZM16.6695 19.7092L16.6024 19.3148L16.5958 19.316L16.6695 19.7092ZM11.0815 19.6876L11.0057 20.0804L11.0081 20.0808L11.0815 19.6876ZM7.90995 18.7599L7.76417 19.1324L7.76455 19.1326L7.90995 18.7599ZM6.33479 18.0263L6.11238 18.3588C6.12116 18.3647 6.13017 18.3702 6.13938 18.3754L6.33479 18.0263ZM6.1407 17.9184L6.36275 17.5857C6.3489 17.5764 6.33448 17.5681 6.31958 17.5606L6.1407 17.9184ZM6.05441 17.8538L6.33726 17.5709C6.31098 17.5447 6.28118 17.5222 6.24869 17.5041L6.05441 17.8538ZM9.53998 20.2806C9.67684 20.1071 9.6472 19.8556 9.47379 19.7188C9.30038 19.5819 9.04885 19.6115 8.91199 19.7849L9.53998 20.2806ZM6.60001 22.6002L6.58735 23C6.68918 23.0032 6.78841 22.9675 6.86478 22.9L6.60001 22.6002ZM1.20001 18.5442H0.800012C0.800012 18.5656 0.801729 18.5869 0.805146 18.608L1.20001 18.5442ZM4.30684 3.26559L4.06683 2.94559C4.00558 2.99153 3.9588 3.05408 3.93205 3.12582L4.30684 3.26559ZM10.3695 1.00018L10.7677 0.962254C10.7484 0.760295 10.581 0.604718 10.3782 0.600275L10.3695 1.00018ZM10.187 3.30366C10.208 3.52358 10.4032 3.68488 10.6232 3.66393C10.8431 3.64299 11.0044 3.44773 10.9834 3.22781L10.187 3.30366ZM16.5316 3.30106C16.5035 3.52017 16.6583 3.72061 16.8774 3.74876C17.0965 3.7769 17.297 3.62209 17.3251 3.40297L16.5316 3.30106ZM17.2304 1.00033L17.2216 0.600423C17.0238 0.604767 16.8589 0.753105 16.8337 0.94937L17.2304 1.00033ZM23.293 3.26574L23.6678 3.12596C23.6411 3.05423 23.5943 2.99168 23.5331 2.94574L23.293 3.26574ZM26.4 18.5442L26.7949 18.6081C26.7983 18.5869 26.8 18.5656 26.8 18.5442H26.4ZM11.966 14.1427L11.566 14.1361V14.1427H11.966ZM21 22.6002C21.2611 22.2971 21.2611 22.2971 21.2611 22.2971C21.261 22.2971 21.261 22.2971 21.261 22.2971C21.261 22.2971 21.2609 22.297 21.2608 22.2969C21.2606 22.2967 21.2602 22.2964 21.2598 22.2961C21.2589 22.2953 21.2575 22.2941 21.2557 22.2925C21.2521 22.2894 21.2466 22.2847 21.2394 22.2785C21.225 22.266 21.2038 22.2475 21.1764 22.2237C21.1216 22.176 21.0424 22.1068 20.9453 22.0212C20.7511 21.8498 20.4856 21.6129 20.2002 21.3509C19.6207 20.8187 18.9884 20.2088 18.6878 19.8281L18.0599 20.3238C18.4067 20.7631 19.0875 21.4152 19.6592 21.9402C19.9494 22.2067 20.2191 22.4472 20.4161 22.621C20.5146 22.708 20.5951 22.7784 20.6511 22.8271C20.6791 22.8514 20.7009 22.8704 20.7158 22.8833C20.7233 22.8898 20.729 22.8947 20.7329 22.8981C20.7348 22.8997 20.7363 22.901 20.7373 22.9019C20.7379 22.9023 20.7382 22.9027 20.7385 22.9029C20.7387 22.903 20.7388 22.9031 20.7388 22.9032C20.7389 22.9032 20.7389 22.9032 20.7389 22.9033C20.7389 22.9033 20.739 22.9033 21 22.6002ZM22.0591 17.1744C21.1998 17.7403 20.3855 18.1366 19.6587 18.4063L19.937 19.1563C20.7206 18.8656 21.5891 18.4418 22.4991 17.8426L22.0591 17.1744ZM19.6429 18.4126C18.5904 18.8548 17.5842 19.1476 16.6024 19.3148L16.7367 20.1035C17.7829 19.9253 18.8479 19.6143 19.9528 19.1501L19.6429 18.4126ZM16.5958 19.316C14.5821 19.6936 12.7343 19.5892 11.1549 19.2944L11.0081 20.0808C12.665 20.3901 14.6143 20.5014 16.7432 20.1023L16.5958 19.316ZM11.1573 19.2949C9.95663 19.0631 8.92312 18.7259 8.05535 18.3873L7.76455 19.1326C8.66575 19.4842 9.74662 19.8373 11.0057 20.0804L11.1573 19.2949ZM8.05574 18.3875C7.57043 18.1975 7.04889 17.9677 6.53019 17.6773L6.13938 18.3754C6.6997 18.6891 7.25689 18.9339 7.76417 19.1324L8.05574 18.3875ZM6.55719 17.6939C6.5009 17.6562 6.44663 17.6296 6.41676 17.6146C6.3818 17.5971 6.37127 17.5914 6.36275 17.5857L5.91864 18.2511C5.97487 18.2886 6.02909 18.3152 6.05883 18.3301C6.09368 18.3475 6.10408 18.3533 6.11238 18.3588L6.55719 17.6939ZM6.31958 17.5606C6.32078 17.5612 6.32357 17.5627 6.32744 17.5652C6.3314 17.5677 6.33533 17.5705 6.33894 17.5734C6.34245 17.5762 6.34459 17.5782 6.34472 17.5783C6.34473 17.5783 6.3446 17.5782 6.34431 17.5779C6.34401 17.5776 6.34358 17.5772 6.34297 17.5766C6.3416 17.5753 6.34002 17.5737 6.33726 17.5709L5.77157 18.1366C5.80202 18.1671 5.86023 18.2254 5.96181 18.2761L6.31958 17.5606ZM6.24869 17.5041C6.06163 17.4002 5.91705 17.3124 5.82033 17.2513C5.77199 17.2207 5.73564 17.1969 5.71196 17.1811C5.70012 17.1732 5.69146 17.1674 5.68605 17.1637C5.68334 17.1618 5.68145 17.1605 5.68039 17.1598C5.67985 17.1594 5.67953 17.1592 5.67941 17.1591C5.67935 17.159 5.67934 17.159 5.67939 17.1591C5.67941 17.1591 5.67944 17.1591 5.67949 17.1591C5.67952 17.1592 5.67954 17.1592 5.67957 17.1592C5.67959 17.1592 5.67961 17.1592 5.67962 17.1592C5.67965 17.1593 5.67968 17.1593 5.45031 17.487C5.22093 17.8147 5.22096 17.8147 5.22099 17.8147C5.221 17.8147 5.22103 17.8147 5.22106 17.8148C5.2211 17.8148 5.22115 17.8148 5.2212 17.8149C5.2213 17.8149 5.22141 17.815 5.22154 17.8151C5.22179 17.8153 5.2221 17.8155 5.22246 17.8157C5.22318 17.8162 5.22412 17.8169 5.22526 17.8177C5.22754 17.8193 5.23067 17.8214 5.23462 17.8241C5.24253 17.8295 5.25375 17.8371 5.26821 17.8468C5.29713 17.866 5.339 17.8935 5.39313 17.9277C5.50139 17.996 5.65886 18.0916 5.86013 18.2034L6.24869 17.5041ZM8.91199 19.7849C8.61013 20.1674 7.97622 20.7892 7.3968 21.3321C7.11128 21.5997 6.84561 21.842 6.65125 22.0175C6.55411 22.1052 6.4749 22.1761 6.42006 22.225C6.39265 22.2495 6.37133 22.2684 6.35693 22.2812C6.34972 22.2876 6.34425 22.2924 6.3406 22.2957C6.33877 22.2973 6.33741 22.2985 6.33651 22.2993C6.33606 22.2997 6.33573 22.3 6.33552 22.3001C6.33541 22.3002 6.33534 22.3003 6.33529 22.3003C6.33527 22.3004 6.33525 22.3004 6.33524 22.3004C6.33524 22.3004 6.33524 22.3004 6.60001 22.6002C6.86478 22.9 6.8648 22.9 6.86483 22.9C6.86485 22.9 6.86488 22.9 6.86492 22.8999C6.86499 22.8999 6.86509 22.8998 6.86523 22.8997C6.8655 22.8994 6.86588 22.8991 6.86639 22.8986C6.8674 22.8977 6.86888 22.8964 6.87082 22.8947C6.8747 22.8913 6.88041 22.8862 6.88786 22.8796C6.90275 22.8664 6.92458 22.847 6.95254 22.8221C7.00845 22.7722 7.08889 22.7002 7.18738 22.6113C7.38427 22.4335 7.65374 22.1877 7.94381 21.9159C8.51559 21.3801 9.19467 20.7181 9.53998 20.2806L8.91199 19.7849ZM6.61268 22.2004C4.35563 22.1289 3.11571 21.1781 2.43074 20.274C2.08324 19.8154 1.87261 19.3602 1.74923 19.0202C1.68768 18.8506 1.64831 18.711 1.62468 18.6159C1.61288 18.5683 1.60504 18.532 1.60034 18.5088C1.59799 18.4972 1.59643 18.4888 1.59555 18.484C1.59511 18.4816 1.59485 18.48 1.59474 18.4794C1.59468 18.4791 1.59467 18.479 1.59469 18.4792C1.59471 18.4792 1.59473 18.4794 1.59476 18.4795C1.59477 18.4796 1.5948 18.4798 1.59481 18.4799C1.59484 18.4801 1.59488 18.4803 1.20001 18.5442C0.805146 18.608 0.805185 18.6083 0.805227 18.6085C0.805245 18.6087 0.805289 18.6089 0.805324 18.6091C0.805394 18.6096 0.805474 18.61 0.805565 18.6106C0.805746 18.6117 0.80597 18.613 0.806238 18.6146C0.806774 18.6177 0.807487 18.6218 0.80839 18.6267C0.810196 18.6367 0.812764 18.6503 0.816207 18.6673C0.823089 18.7014 0.833476 18.7491 0.848259 18.8086C0.877802 18.9276 0.925043 19.0943 0.997223 19.2932C1.1413 19.6901 1.38661 20.2206 1.79309 20.7571C2.61604 21.8433 4.07613 22.9205 6.58735 23L6.61268 22.2004ZM1.60001 18.5442C1.60001 15.1214 2.36676 11.3405 3.14025 8.40146C3.52621 6.93493 3.9122 5.6841 4.20154 4.80037C4.34618 4.35859 4.46659 4.0088 4.55065 3.76994C4.59268 3.65051 4.62563 3.55883 4.64796 3.49727C4.65913 3.4665 4.66764 3.44325 4.67332 3.42783C4.67615 3.42012 4.67828 3.41437 4.67967 3.41061C4.68037 3.40873 4.68088 3.40735 4.68121 3.40647C4.68137 3.40603 4.68149 3.40572 4.68156 3.40553C4.68159 3.40544 4.68161 3.40539 4.68163 3.40534C4.68163 3.40533 4.68162 3.40535 4.30684 3.26559C3.93205 3.12582 3.93202 3.12591 3.93197 3.12602C3.93194 3.1261 3.93189 3.12625 3.93183 3.12641C3.93171 3.12673 3.93154 3.12717 3.93133 3.12775C3.93091 3.12889 3.93029 3.13055 3.9295 3.1327C3.9279 3.137 3.92557 3.1433 3.92253 3.15157C3.91645 3.1681 3.90752 3.19248 3.89593 3.22442C3.87275 3.28829 3.83895 3.3824 3.79603 3.50435C3.71019 3.74824 3.58788 4.10361 3.44125 4.55145C3.14806 5.44694 2.75734 6.71314 2.3666 8.19785C1.58667 11.1613 0.800012 15.0197 0.800012 18.5442H1.60001ZM4.54684 3.58558C6.04941 2.45864 7.5132 1.91239 8.59803 1.64767C9.14049 1.5153 9.58756 1.4535 9.89617 1.42475C10.0504 1.41038 10.1699 1.40428 10.2492 1.40174C10.2888 1.40048 10.3184 1.4001 10.3372 1.40002C10.3466 1.39998 10.3533 1.40001 10.3573 1.40005C10.3592 1.40007 10.3605 1.40008 10.3611 1.40009C10.3614 1.4001 10.3615 1.4001 10.3614 1.4001C10.3614 1.4001 10.3613 1.4001 10.3612 1.40009C10.3611 1.40009 10.361 1.40009 10.361 1.40009C10.3608 1.40009 10.3607 1.40008 10.3695 1.00018C10.3782 0.600275 10.378 0.600272 10.3779 0.600268C10.3778 0.600266 10.3776 0.600262 10.3774 0.600259C10.3771 0.600253 10.3768 0.600246 10.3764 0.600239C10.3756 0.600224 10.3747 0.600207 10.3735 0.60019C10.3712 0.600154 10.3682 0.600115 10.3645 0.600081C10.3571 0.600014 10.3468 0.59997 10.3338 0.600025C10.3078 0.600135 10.2708 0.600641 10.2236 0.602153C10.1291 0.605177 9.99336 0.612228 9.82196 0.628196C9.47927 0.660122 8.99322 0.727765 8.40838 0.870478C7.23861 1.15592 5.67108 1.74238 4.06683 2.94559L4.54684 3.58558ZM9.97126 1.0381L10.187 3.30366L10.9834 3.22781L10.7677 0.962254L9.97126 1.0381ZM17.3251 3.40297L17.6272 1.05128L16.8337 0.94937L16.5316 3.30106L17.3251 3.40297ZM17.2304 1.00033C17.2392 1.40023 17.2391 1.40023 17.2389 1.40024C17.2389 1.40024 17.2388 1.40024 17.2387 1.40024C17.2386 1.40024 17.2385 1.40025 17.2385 1.40025C17.2384 1.40025 17.2385 1.40024 17.2388 1.40024C17.2394 1.40023 17.2407 1.40021 17.2426 1.4002C17.2466 1.40016 17.2533 1.40012 17.2627 1.40016C17.2815 1.40024 17.3111 1.40062 17.3507 1.40189C17.43 1.40442 17.5495 1.41051 17.7037 1.42488C18.0123 1.45362 18.4594 1.51541 19.0019 1.64777C20.0867 1.91247 21.5505 2.45871 23.053 3.58573L23.5331 2.94574C21.9288 1.74246 20.3613 1.156 19.1915 0.870569C18.6066 0.727865 18.1206 0.660236 17.7779 0.628322C17.6065 0.61236 17.4708 0.605314 17.3763 0.602294C17.329 0.600784 17.292 0.600279 17.266 0.600171C17.253 0.600116 17.2428 0.600161 17.2354 0.600229C17.2316 0.600262 17.2286 0.600302 17.2263 0.600337C17.2252 0.600355 17.2242 0.600372 17.2235 0.600387C17.2231 0.600394 17.2227 0.600401 17.2224 0.600407C17.2223 0.60041 17.2221 0.600414 17.222 0.600416C17.2218 0.60042 17.2216 0.600423 17.2304 1.00033ZM23.293 3.26574C22.9183 3.40551 22.9182 3.40549 22.9183 3.4055C22.9183 3.40555 22.9183 3.40559 22.9183 3.40569C22.9184 3.40587 22.9185 3.40619 22.9187 3.40662C22.919 3.4075 22.9195 3.40888 22.9202 3.41076C22.9216 3.41452 22.9237 3.42027 22.9266 3.42798C22.9322 3.4434 22.9408 3.46665 22.9519 3.49743C22.9743 3.55899 23.0072 3.65066 23.0492 3.77009C23.1333 4.00895 23.2537 4.35873 23.3984 4.8005C23.6877 5.68422 24.0737 6.93503 24.4597 8.40154C25.2332 11.3405 26 15.1214 26 18.5442H26.8C26.8 15.0197 26.0133 11.1614 25.2334 8.19792C24.8426 6.71323 24.4518 5.44704 24.1586 4.55156C24.012 4.10373 23.8897 3.74837 23.8039 3.50448C23.7609 3.38253 23.7271 3.28843 23.7039 3.22456C23.6924 3.19262 23.6834 3.16824 23.6773 3.15171C23.6743 3.14344 23.672 3.13714 23.6704 3.13284C23.6696 3.13069 23.669 3.12903 23.6685 3.12789C23.6683 3.12731 23.6682 3.12687 23.668 3.12655C23.668 3.12639 23.6679 3.12624 23.6679 3.12616C23.6679 3.12605 23.6678 3.12596 23.293 3.26574ZM26.4 18.5442C26.0051 18.4803 26.0052 18.4801 26.0052 18.4799C26.0052 18.4798 26.0053 18.4796 26.0053 18.4795C26.0053 18.4793 26.0053 18.4792 26.0053 18.4791C26.0054 18.479 26.0053 18.4791 26.0053 18.4794C26.0052 18.48 26.0049 18.4816 26.0045 18.484C26.0036 18.4888 26.002 18.4971 25.9997 18.5088C25.995 18.532 25.9871 18.5683 25.9753 18.6158C25.9517 18.711 25.9123 18.8506 25.8508 19.0202C25.7274 19.3602 25.5167 19.8153 25.1692 20.274C24.4842 21.1781 23.2443 22.1289 20.9873 22.2004L21.0127 23C23.5238 22.9205 24.9839 21.8433 25.8069 20.7571C26.2134 20.2206 26.4587 19.6901 26.6028 19.2932C26.675 19.0943 26.7222 18.9276 26.7518 18.8087C26.7665 18.7491 26.7769 18.7014 26.7838 18.6674C26.7873 18.6503 26.7898 18.6367 26.7916 18.6268C26.7925 18.6218 26.7932 18.6177 26.7938 18.6146C26.7941 18.613 26.7943 18.6117 26.7945 18.6106C26.7945 18.6101 26.7946 18.6096 26.7947 18.6092C26.7947 18.6089 26.7948 18.6087 26.7948 18.6086C26.7948 18.6083 26.7949 18.6081 26.4 18.5442ZM9.76535 11.3479C8.28119 11.3479 7.16483 12.6408 7.16483 14.1427H7.96483C7.96483 13.0125 8.79 12.1479 9.76535 12.1479V11.3479ZM7.16483 14.1427C7.16483 15.6474 8.30514 16.9376 9.76535 16.9376V16.1376C8.80912 16.1376 7.96483 15.2704 7.96483 14.1427H7.16483ZM9.76535 16.9376C11.2496 16.9376 12.366 15.6447 12.366 14.1427H11.566C11.566 15.273 10.7408 16.1376 9.76535 16.1376V16.9376ZM12.366 14.1493C12.3909 12.6359 11.2438 11.3479 9.76535 11.3479V12.1479C10.7464 12.1479 11.5845 13.0174 11.5661 14.1361L12.366 14.1493ZM17.6404 11.3479C16.1562 11.3479 15.0396 12.6407 15.0396 14.1427H15.8396C15.8396 13.0126 16.6649 12.1479 17.6404 12.1479V11.3479ZM15.0396 14.1427C15.0396 15.6474 16.1803 16.9376 17.6404 16.9376V16.1376C16.6841 16.1376 15.8396 15.2703 15.8396 14.1427H15.0396ZM17.6404 16.9376C19.1246 16.9376 20.241 15.6447 20.241 14.1427H19.441C19.441 15.273 18.6158 16.1376 17.6404 16.1376V16.9376ZM20.241 14.1427C20.241 12.6408 19.1246 11.3479 17.6404 11.3479V12.1479C18.6158 12.1479 19.441 13.0125 19.441 14.1427H20.241ZM6.79153 5.85135C9.42993 4.41244 11.6295 3.71279 13.804 3.71171C15.9782 3.71063 18.175 4.40798 20.8078 5.85095L21.1923 5.14941C18.4929 3.66994 16.1608 2.91054 13.8036 2.91171C11.4466 2.91288 9.11228 3.67444 6.40849 5.14901L6.79153 5.85135Z" fill="white"/>
</svg>
